<svg width="26" height="25" viewBox="0 0 26 25" fill="none" xmlns="http://www.w3.org/2000/svg">
<path d="M13.3025 0.518311C6.46605 0.518311 0.872559 5.87613 0.872559 12.4749C0.872559 18.4413 5.42193 23.3934 11.3635 24.2884V15.9355H8.20624V12.4749H11.3635V9.83781C11.3635 6.84268 13.2155 5.19596 16.062 5.19596C17.4169 5.19596 18.8339 5.42268 18.8339 5.42268V8.37007H17.2677C15.7264 8.37007 15.2416 9.2889 15.2416 10.2316V12.4749H18.6971L18.1378 15.9355H15.2416V24.2884C18.1707 23.8443 20.8378 22.4096 22.7617 20.2433C24.6855 18.0769 25.7392 15.3217 25.7325 12.4749C25.7325 5.87613 20.139 0.518311 13.3025 0.518311Z" fill="white"/>
</svg>
