<svg width="19" height="19" viewBox="0 0 19 19" fill="none" xmlns="http://www.w3.org/2000/svg">
<g clip-path="url(#clip0_5_189)">
<path d="M9.30247 6.31946C8.51128 6.31946 7.75249 6.63376 7.19303 7.19322C6.63357 7.75267 6.31927 8.51146 6.31927 9.30265C6.31927 10.0938 6.63357 10.8526 7.19303 11.4121C7.75249 11.9715 8.51128 12.2858 9.30247 12.2858C10.0937 12.2858 10.8524 11.9715 11.4119 11.4121C11.9714 10.8526 12.2857 10.0938 12.2857 9.30265C12.2857 8.51146 11.9714 7.75267 11.4119 7.19322C10.8524 6.63376 10.0937 6.31946 9.30247 6.31946Z" fill="white"/>
<path fill-rule="evenodd" clip-rule="evenodd" d="M5.72265 0.353027C4.29851 0.353027 2.93269 0.918767 1.92567 1.92579C0.918645 2.93281 0.352905 4.29863 0.352905 5.72278L0.352905 12.8824C0.352905 14.3066 0.918645 15.6724 1.92567 16.6794C2.93269 17.6864 4.29851 18.2522 5.72265 18.2522H12.8823C14.3065 18.2522 15.6723 17.6864 16.6793 16.6794C17.6863 15.6724 18.2521 14.3066 18.2521 12.8824V5.72278C18.2521 4.29863 17.6863 2.93281 16.6793 1.92579C15.6723 0.918767 14.3065 0.353027 12.8823 0.353027L5.72265 0.353027ZM5.12601 9.30261C5.12601 8.19494 5.56603 7.13264 6.34928 6.3494C7.13251 5.56616 8.19482 5.12614 9.30249 5.12614C10.4102 5.12614 11.4725 5.56616 12.2557 6.3494C13.0389 7.13264 13.479 8.19494 13.479 9.30261C13.479 10.4103 13.0389 11.4726 12.2557 12.2558C11.4725 13.0391 10.4102 13.4791 9.30249 13.4791C8.19482 13.4791 7.13251 13.0391 6.34928 12.2558C5.56603 11.4726 5.12601 10.4103 5.12601 9.30261ZM13.479 5.12614H14.6722V3.93286H13.479V5.12614Z" fill="white"/>
</g>
<defs>
<clipPath id="clip0_5_189">
<rect width="17.8992" height="17.8992" fill="white" transform="translate(0.352905 0.353027)"/>
</clipPath>
</defs>
</svg>
